<svg id="Calque_1" data-name="Calque 1" xmlns="http://www.w3.org/2000/svg" xmlns:xlink="http://www.w3.org/1999/xlink" viewBox="0 0 202.32 177.56"><defs><clipPath id="clip-path"><rect x="-241.65" y="-625.54" width="841.89" height="595.28" style="fill:none"/></clipPath></defs><title>Esquisses</title><path d="M101.19,120.27c-5.34,4.6-14.39.51-17.13-6s-1.05-13.94,1-20.68c6-19.84,14.86-38.68,23.68-57.44-1,2.15,3.76,12.2,4.53,14.67l4.94,16c2.54,8.24,7.27,16.18,4.55,24.94-1.45,4.67-4,8.89-5.94,13.38a49.51,49.51,0,0,0-3.75,21.93c.46,8.7-2.21,9-11.25,8.5C101.08,130.63,101.33,125.31,101.19,120.27Z" style="fill:#272525"/></svg>