<svg id="Calque_1" data-name="Calque 1" xmlns="http://www.w3.org/2000/svg" viewBox="0 0 202.32 177.56"><title>Esquisses</title><path d="M173.28,109.47c-5.43-20.13-21.08-38-27.94-58.08-1.55-4.55-1.94-9.57-3.85-14-2.22-5.07-8-13.7-13-16.38.28,3.3-5.13,12.92-8.1,14.44-2.54,1.31-7.67-.81-10.48-1.28-2.88,6.09-8.88,7.72-13.31,12-7.72,7.53-13.22,20.26-17.56,30-4.2,9.45-9.86,17.95-13.56,27.68-3.94,10.36-5.64,23.24-11.75,32.32" style="fill:none;stroke:#272525;stroke-miterlimit:10;stroke-width:3px"/><path d="M119.26,35.15c-.18,2.67-5,7.09-6.68,9.92-1,1.73-2.25,3.36-3.16,5,12.68,5.79-.16,17.35-4.13,24.43s-.74,12.51-1.18,20c-.19,3.24-7.55,17.58-9.38,15.45" style="fill:none;stroke:#272525;stroke-miterlimit:10;stroke-width:3px"/></svg>