<svg id="Calque_1" data-name="Calque 1" xmlns="http://www.w3.org/2000/svg" viewBox="0 0 202.32 177.56"><title>Esquisses</title><path d="M142.16,93.32a22.66,22.66,0,0,1-9.61,7l-.7-20.59a30.35,30.35,0,0,1-10,15.25,29.71,29.71,0,0,0-10.21-17.6l-1.09,14.67c-.07,1-.26,2.2-1.17,2.65-1.07.54-2.29-.34-3.16-1.16L83.54,72.27a40.58,40.58,0,0,0,5.55,32.35,54.71,54.71,0,0,1-23.75,4.08c2.14.11,7.41,5.56,9.59,6.82a63.68,63.68,0,0,0,11.82,5.27,64.43,64.43,0,0,0,26.16,2.94C128.63,122.26,141.58,109.49,142.16,93.32Z" style="fill:none;stroke:#272525;stroke-miterlimit:10;stroke-width:3px"/></svg>