<svg id="Calque_1" data-name="Calque 1" xmlns="http://www.w3.org/2000/svg" xmlns:xlink="http://www.w3.org/1999/xlink" viewBox="0 0 202.32 177.56"><defs><clipPath id="clip-path"><rect y="-625.54" width="841.89" height="595.28" style="fill:none"/></clipPath></defs><title>Esquisses</title><g style="clip-path:url(#clip-path)"><g style="clip-path:url(#clip-path)"><path d="M105.52,106.85c-1.09.77-2.4-.87-2.29-2.19s.83-2.66.42-3.92a4.65,4.65,0,0,0-2.24-2.22l-4.84-3a2.91,2.91,0,0,1-1-.8,2.67,2.67,0,0,1-.34-1.06,15.44,15.44,0,0,1,13-17.71,1.86,1.86,0,0,1,1,.06,2,2,0,0,1,.65.58l1.82,2.18c1.56,1.87,3.18,3.86,3.57,6.26.35,2.13-.33,4.27-.6,6.41s0,4.62,1.7,5.94a55.84,55.84,0,0,0-7.87,2.46,4.6,4.6,0,0,1-.22,5.78c-1.57,1.7-1.38,2.5-1.33,4.69-.56-.32-2.52-2.75-1.49-3.48" style="fill:#272525"/></g></g><path d="M77.3,109.36c-2.2-3-2.71-7-2.86-10.71A73.1,73.1,0,0,1,97.51,42.84c7.73,1.12,15.63,2.3,22.52,6s12.71,10.35,13.11,18.15c0,10.64-2.95,22.62-9,31.43a118.15,118.15,0,0,1-10.58,13.41c-1.67,1.8-5.45,4-6.46,6-1.86,3.73-.34,11.6-.36,15.75a53.8,53.8,0,0,1-13.33-.47c-.18,0,1.65-8.65,1.49-9.48-.46-2.47-1.77-3.89-3.75-5.52C86.91,114.56,80.72,114.09,77.3,109.36Z" style="fill:#272525"/></svg>