<svg id="Calque_1" data-name="Calque 1" xmlns="http://www.w3.org/2000/svg" viewBox="0 0 202.32 177.56"><title>Esquisses</title><path d="M55.84,75.09c13.71-7.17,28.86-3.1,43.37-1.3,3.17.39,7.73,1.12,10.94.36,2.87-.67,5.19-5.68,7.68-5.15,2.25.48,3.2,5.32,4.77,6.89,3.39,3.4,8.48,4.71,12.49,7.09,6.25,3.7,10.88,10.16.46,11.21-4.79.49-12.94-1.84-16.78,1-4.37,3.28-4.55,16.43-5.49,21.67-.72,4-1.61,20.06-5.66,20.64-7.34,1.05-1.87-18.49-4.69-22.87-3.8-5.9-9.75-2-14.89-.11-6.21,2.24-12.48,1.19-18.81-.31-2.12-.5-4.43-1.91-6.62-1.91-4,0-3.14.26-4.87,3.73-1.88,3.77-2.33,15.51-5,16.78a42.47,42.47,0,0,1-2.79-18.73c.37-4.88,2.8-12.82.88-17.23-10.58,1.75-8,21.77-16.76,26.62-.66-10.05.48-19.29,5.95-27.66C42.66,91.72,50.91,75.21,55.84,75.09Z" style="fill:#272525"/></svg>